<svg width="538" height="170" viewBox="0 0 538 170" fill="none" xmlns="http://www.w3.org/2000/svg">
<mask id="path-1-outside-1" maskUnits="userSpaceOnUse" x="74" y="0" width="164" height="170" fill="black">
<rect fill="white" x="74" width="164" height="170"/>
<path fill-rule="evenodd" clip-rule="evenodd" d="M232.898 85C232.898 129.183 197.081 165 152.898 165C125.838 165 101.915 151.564 87.4377 131H142.761C145.87 131.655 149.094 132 152.398 132C178.079 132 198.898 111.181 198.898 85.5C198.898 59.8188 178.079 39 152.398 39C139.876 39 128.509 43.95 120.149 52H80C92.568 24.2807 120.481 5 152.898 5C197.081 5 232.898 40.8172 232.898 85Z"/>
</mask>
<path fill-rule="evenodd" clip-rule="evenodd" d="M232.898 85C232.898 129.183 197.081 165 152.898 165C125.838 165 101.915 151.564 87.4377 131H142.761C145.87 131.655 149.094 132 152.398 132C178.079 132 198.898 111.181 198.898 85.5C198.898 59.8188 178.079 39 152.398 39C139.876 39 128.509 43.95 120.149 52H80C92.568 24.2807 120.481 5 152.898 5C197.081 5 232.898 40.8172 232.898 85Z" fill="#FBFBFF"/>
<path d="M87.4377 131V126C85.5709 126 83.8596 127.04 82.9997 128.697C82.1398 130.354 82.2746 132.352 83.3492 133.878L87.4377 131ZM142.761 131L143.792 126.107C143.453 126.036 143.107 126 142.761 126V131ZM120.149 52V57C121.442 57 122.686 56.4988 123.617 55.6017L120.149 52ZM80 52L75.4462 49.9353C74.7446 51.4828 74.8768 53.2807 75.7974 54.7089C76.718 56.1371 78.3008 57 80 57V52ZM152.898 170C199.842 170 237.898 131.944 237.898 85H227.898C227.898 126.421 194.32 160 152.898 160V170ZM83.3492 133.878C98.723 155.716 124.142 170 152.898 170V160C127.533 160 105.107 147.413 91.5261 128.122L83.3492 133.878ZM142.761 126H87.4377V136H142.761V126ZM141.73 135.893C145.176 136.619 148.745 137 152.398 137V127C149.442 127 146.564 126.692 143.792 126.107L141.73 135.893ZM152.398 137C180.841 137 203.898 113.943 203.898 85.5H193.898C193.898 108.42 175.318 127 152.398 127V137ZM203.898 85.5C203.898 57.0573 180.841 34 152.398 34V44C175.318 44 193.898 62.5802 193.898 85.5H203.898ZM152.398 34C138.531 34 125.936 39.4872 116.681 48.3983L123.617 55.6017C131.083 48.4127 141.22 44 152.398 44V34ZM80 57H120.149V47H80V57ZM152.898 0C118.448 0 88.7948 20.4946 75.4462 49.9353L84.5538 54.0647C96.3413 28.0669 122.515 10 152.898 10V0ZM237.898 85C237.898 38.0558 199.842 0 152.898 0V10C194.32 10 227.898 43.5786 227.898 85H237.898Z" fill="#0B4F6C" mask="url(#path-1-outside-1)"/>
<path d="M9.01392 62.8589C11.0265 62.7926 13.33 62.719 15.8723 62.6412C25.4633 62.3476 38.4495 61.9955 52.0351 61.7607C65.6242 61.5259 79.7963 61.4089 91.7643 61.5846C103.823 61.7616 113.4 62.2355 117.957 63.1248C122.38 63.9877 123.785 65.546 124.239 66.699C124.759 68.0165 124.51 69.9129 123.396 72.3048C122.321 74.6125 120.665 76.8918 119.219 78.6413C118.505 79.5042 117.864 80.2136 117.403 80.7044C117.395 80.7131 117.387 80.7217 117.379 80.7303H117.332H117.259H117.184H117.107H117.027H116.945H116.861H116.775H116.686H116.596H116.503H116.408H116.311H116.212H116.111H116.008H115.902H115.795H115.686H115.574H115.461H115.345H115.228H115.108H114.987H114.863H114.738H114.61H114.481H114.35H114.216H114.081H113.944H113.805H113.664H113.522H113.377H113.231H113.083H112.933H112.781H112.627H112.472H112.314H112.155H111.995H111.832H111.668H111.502H111.334H111.165H110.994H110.821H110.646H110.47H110.293H110.113H109.932H109.749H109.565H109.379H109.192H109.003H108.812H108.62H108.426H108.231H108.034H107.836H107.636H107.435H107.232H107.028H106.822H106.615H106.406H106.196H105.985H105.772H105.558H105.342H105.125H104.907H104.687H104.466H104.244H104.02H103.795H103.569H103.342H103.113H102.883H102.651H102.419H102.185H101.95H101.714H101.476H101.237H100.998H100.757H100.514H100.271H100.027H99.7812H99.5345H99.2867H99.0379H98.7879H98.5369H98.2849H98.0317H97.7776H97.5224H97.2662H97.009H96.7508H96.4916H96.2315H95.9704H95.7083H95.4453H95.1813H94.9165H94.6507H94.3841H94.1165H93.8481H93.5788H93.3087H93.0377H92.7659H92.4932H92.2198H91.9455H91.6705H91.3947H91.1181H90.8408H90.5627H90.2839H90.0043H89.7241H89.4431H89.1615H88.8791H88.5961H88.3125H88.0281H87.7432H87.4576H87.1714H86.8846H86.5972H86.3092H86.0207H85.7316H85.4419H85.1517H84.861H84.5697H84.278H83.9857H83.6929H83.3997H83.106H82.8119H82.5173H82.2223H81.9268H81.631H81.3347H81.0381H80.7411H80.4437H80.1459H79.8478H79.5494H79.2507H78.9516H78.6522H78.3526H78.0526H77.7524H77.4519H77.1512H76.8502H76.549H76.2476H75.946H75.6442H75.3422H75.0401H74.7377H74.4352H74.1326H73.8299H73.527H73.224H72.9209H72.6178H72.3145H72.0112H71.7079H71.4045H71.101H70.7976H70.4941H70.1906H69.8871H69.5837H69.2803H68.9769H68.6736H68.3703H68.0672H67.7641H67.4611H67.1582H66.8554H66.5528H66.2503H65.9479H65.6457H65.3437H65.0419H64.7402H64.4388H64.1376H63.8366H63.5358H63.2353H62.935H62.6351H62.3354H62.0359H61.7368H61.438H61.1396H60.8414H60.5436H60.2462H59.9491H59.6524H59.3561H59.0602H58.7647H58.4696H58.1749H57.8807H57.587H57.2937H57.0009H56.7085H56.4167H56.1254H55.8345H55.5443H55.2545H54.9653H54.6767H54.3886H54.1011H53.8142H53.528H53.2423H52.9572H52.6728H52.3891H52.106H51.8235H51.5418H51.2607H50.9804H50.7007H50.4218H50.1436H49.8661H49.5894H49.3135H49.0384H48.764H48.4904H48.2177H47.9457H47.6746H47.4044H47.1349H46.8664H46.5987H46.3319H46.066H45.801H45.537H45.2738H45.0116H44.7504H44.4901H44.2308H43.9724H43.7151H43.4587H43.2034H42.9491H42.6958H42.4436H42.1924H41.9423H41.6933H41.4454H41.1985H40.9528H40.7082H40.4648H40.2224H39.9813H39.7413H39.5025H39.2648H39.0284H38.7932H38.5592H38.3264H38.0948H37.8646H37.6355H37.4078H37.1813H36.9562H36.7323H36.5097H36.2885H36.0686H35.8501H35.6329H35.4171H35.2027H34.9897H34.7781H34.5679H34.3591H34.1517H33.9458H33.7414H33.5384H33.3369H33.1369H32.9384H32.7414H32.5459H32.3519H32.1595H31.9687H31.7794H31.5917H31.4056H31.2805C31.1248 79.7888 30.6732 78.9554 30.2151 78.2891C29.2833 76.9338 27.7939 75.5201 26.1433 74.1619C24.4542 72.772 22.4383 71.3136 20.317 69.8795C16.6035 67.369 12.473 64.8699 9.01392 62.8589Z" stroke="white" stroke-width="5"/>
<path d="M45.7708 94.7344C42.5404 92.5443 38.7851 90.3692 35.6722 88.6582C37.1204 88.5971 38.7487 88.5301 40.527 88.4599C47.9515 88.1664 57.9854 87.8143 68.4276 87.5797C78.8737 87.3449 89.7101 87.2281 98.7459 87.4036C103.265 87.4913 107.314 87.6518 110.628 87.9048C113.985 88.1611 116.452 88.5035 117.886 88.9132C120.723 89.7235 121.721 90.9879 122.082 92.1201C122.494 93.4146 122.266 95.1231 121.507 97.0749C120.766 98.9804 119.631 100.83 118.648 102.234C118.201 102.872 117.796 103.403 117.491 103.789H117.453H117.391H117.326H117.259H117.191H117.121H117.049H116.975H116.9H116.822H116.743H116.662H116.58H116.496H116.41H116.322H116.232H116.141H116.048H115.954H115.857H115.759H115.66H115.559H115.456H115.351H115.245H115.137H115.028H114.917H114.804H114.69H114.575H114.458H114.339H114.218H114.097H113.973H113.848H113.722H113.594H113.465H113.334H113.202H113.068H112.933H112.796H112.658H112.519H112.378H112.236H112.092H111.947H111.801H111.653H111.504H111.354H111.202H111.049H110.895H110.739H110.582H110.424H110.264H110.103H109.941H109.778H109.613H109.447H109.28H109.112H108.943H108.772H108.6H108.427H108.253H108.078H107.901H107.724H107.545H107.365H107.184H107.002H106.819H106.635H106.449H106.263H106.076H105.887H105.698H105.507H105.316H105.123H104.929H104.735H104.539H104.343H104.145H103.947H103.748H103.547H103.346H103.144H102.941H102.737H102.532H102.327H102.12H101.913H101.704H101.495H101.285H101.075H100.863H100.651H100.438H100.224H100.009H99.7933H99.5771H99.3601H99.1423H98.9239H98.7047H98.4848H98.2642H98.0429H97.8209H97.5983H97.375H97.151H96.9264H96.7011H96.4753H96.2488H96.0217H95.794H95.5657H95.3368H95.1074H94.8774H94.6468H94.4157H94.1841H93.9519H93.7193H93.4861H93.2524H93.0182H92.7836H92.5485H92.3129H92.0769H91.8404H91.6035H91.3662H91.1285H90.8903H90.6518H90.4129H90.1736H89.9339H89.6939H89.4536H89.2129H88.9718H88.7305H88.4888H88.2468H88.0046H87.762H87.5192H87.2761H87.0328H86.7892H86.5454H86.3013H86.0571H85.8126H85.5679H85.323H85.078H84.8328H84.5874H84.3419H84.0962H83.8504H83.6044H83.3584H83.1122H82.8659H82.6196H82.3732H82.1267H81.8801H81.6335H81.3868H81.1402H80.8934H80.6467H80.4H80.1533H79.9066H79.6599H79.4132H79.1666H78.9201H78.6736H78.4271H78.1808H77.9345H77.6883H77.4423H77.1963H76.9505H76.7048H76.4593H76.2139H75.9687H75.7236H75.4787H75.2341H74.9896H74.7453H74.5013H74.2574H74.0138H73.7705H73.5274H73.2846H73.042H72.7997H72.5578H72.3161H72.0747H71.8337H71.593H71.3526H71.1126H70.8729H70.6336H70.3947H70.1561H69.918H69.6802H69.4429H69.206H68.9695H68.7335H68.4979H68.2628H68.0281H67.7939H67.5602H67.327H67.0943H66.8622H66.6305H66.3994H66.1688H65.9388H65.7094H65.4805H65.2522H65.0244H64.7973H64.5708H64.3449H64.1196H63.895H63.671H63.4477H63.225H63.003H62.7817H62.5611H62.3412H62.122H61.9035H61.6857H61.4687H61.2524H61.0369H60.8222H60.6082H60.395H60.1826H59.971H59.7602H59.5502H59.3411H59.1328H58.9254H58.7188H58.5131H58.3082H58.1043H57.9012H57.6991H57.4979H57.2976H57.0982H56.8997H56.7023H56.5057H56.3102H56.1156H55.922H55.7294H55.5379H55.3473H55.1578H54.9693H54.7818H54.5954H54.4101H54.2258H54.0426H53.8605H53.7365C53.771 103.194 53.6492 102.633 53.4681 102.15C52.957 100.787 51.7661 99.4864 50.5137 98.3563C49.1966 97.168 47.5412 95.9347 45.7708 94.7344Z" stroke="#F8FAFA" stroke-width="4"/>
<path d="M118.468 119.845C118.157 120.191 117.872 120.484 117.644 120.709H117.622H117.576H117.529H117.48H117.431H117.38H117.329H117.276H117.222H117.166H117.11H117.052H116.994H116.934H116.873H116.811H116.748H116.684H116.619H116.552H116.485H116.417H116.347H116.276H116.205H116.132H116.058H115.983H115.908H115.831H115.753H115.674H115.594H115.513H115.431H115.348H115.265H115.18H115.094H115.007H114.919H114.831H114.741H114.65H114.559H114.466H114.373H114.279H114.184H114.087H113.99H113.893H113.794H113.694H113.594H113.492H113.39H113.287H113.183H113.078H112.972H112.866H112.758H112.65H112.541H112.431H112.321H112.209H112.097H111.984H111.87H111.756H111.64H111.524H111.407H111.29H111.171H111.052H110.932H110.812H110.691H110.569H110.446H110.322H110.198H110.074H109.948H109.822H109.695H109.568H109.439H109.31H109.181H109.051H108.92H108.789H108.657H108.524H108.391H108.257H108.122H107.987H107.851H107.715H107.578H107.441H107.303H107.164H107.025H106.886H106.745H106.605H106.463H106.321H106.179H106.036H105.893H105.749H105.605H105.46H105.315H105.169H105.022H104.876H104.728H104.581H104.433H104.284H104.135H103.986H103.836H103.685H103.535H103.384H103.232H103.08H102.928H102.775H102.622H102.469H102.315H102.161H102.006H101.851H101.696H101.54H101.384H101.228H101.072H100.915H100.758H100.6H100.442H100.284H100.126H99.9674H99.8085H99.6493H99.4899H99.3302H99.1703H99.0102H98.8497H98.6891H98.5282H98.3672H98.2059H98.0444H97.8827H97.7208H97.5587H97.3964H97.234H97.0713H96.9086H96.7456H96.5825H96.4193H96.2559H96.0923H95.9287H95.7649H95.601H95.437H95.2728H95.1086H94.9443H94.7799H94.6154H94.4508H94.2862H94.1215H93.9567H93.7919H93.627H93.4621H93.2972H93.1322H92.9672H92.8022H92.6372H92.4721H92.3071H92.1421H91.9771H91.8121H91.6471H91.4822H91.3172H91.1524H90.9876H90.8228H90.6581H90.4934H90.3289H90.1644H90H89.8356H89.6714H89.5073H89.3433H89.1793H89.0156H88.8519H88.6884H88.525H88.3617H88.1986H88.0356H87.8728H87.7102H87.5477H87.3855H87.2234H87.0614H86.8997H86.7382H86.5769H86.4158H86.2549H86.0943H85.9339H85.7737H85.6138H85.4541H85.2946H85.1355H84.9766H84.8179H84.6596H84.5015H84.3437H84.1862H84.029H83.8722H83.7156H83.5594H83.4034H83.2478H83.0926H82.9377H82.7831H82.6289H82.4751H82.3216H82.1685H82.0158H81.8635H81.7115H81.56H81.4088H81.2581H81.1078H80.9579H80.8084H80.6594H80.5108H80.3626H80.2149H80.0676H79.9209H79.7745H79.6287H79.4833H79.3384H79.194H79.0501H78.9067H78.7639H78.6215H78.4797H78.3383H78.1975H78.0573H77.9176H77.7784H77.6399H77.5018H77.3644H77.2275H77.0912H76.9554H76.8203H76.6858H76.5519H76.4185H76.2858H76.1538H76.0223H75.8915H75.7613H75.6318H75.5029H75.3747H75.2471H75.1202H74.994H74.8685H74.7436H74.6195H74.496H74.3733H74.2512H74.1299H74.0093H73.8895H73.7703H73.6519H73.5343H73.4174H73.3012H73.1859H73.0713H72.9574H72.8444H72.7321H72.6207H72.51H72.4001H72.2911H72.1829H72.0802C71.936 120.248 71.7076 119.848 71.4916 119.53C70.9103 118.673 70.0019 117.808 69.0391 117.007C68.0457 116.181 66.8662 115.32 65.6332 114.477C63.9221 113.309 62.0609 112.146 60.3644 111.128C60.9774 111.093 61.6251 111.056 62.3041 111.017C67.5297 110.724 74.6063 110.373 82.0166 110.138C89.4319 109.904 97.1572 109.788 103.688 109.962C106.954 110.05 109.898 110.209 112.342 110.459C114.823 110.713 116.657 111.048 117.779 111.438C120.168 112.269 120.889 113.241 121.114 113.868C121.36 114.553 121.257 115.482 120.686 116.675C120.127 117.841 119.253 118.971 118.468 119.845Z" stroke="#F8FAFA" stroke-width="4"/>
<path d="M289.64 106.056C294.824 103.272 298.28 98.184 298.28 91.272C298.28 80.616 289.64 73.8 273.512 73.8H242.024V141H275.432C292.712 141 301.736 134.28 301.736 122.76C301.736 114.024 296.84 108.36 289.64 106.056ZM272.168 83.592C280.808 83.592 285.704 86.664 285.704 92.904C285.704 99.048 280.808 102.12 272.168 102.12H254.504V83.592H272.168ZM274.664 131.208H254.504V111.816H274.664C284.072 111.816 289.16 114.792 289.16 121.512C289.16 128.232 284.072 131.208 274.664 131.208ZM372.463 141L357.007 118.92C366.127 115.368 371.311 107.88 371.311 97.704C371.311 82.824 360.367 73.8 342.703 73.8H315.055V141H327.535V121.416H342.703C343.567 121.416 344.431 121.416 345.295 121.32L359.023 141H372.463ZM358.735 97.704C358.735 106.152 353.071 111.144 342.127 111.144H327.535V84.36H342.127C353.071 84.36 358.735 89.256 358.735 97.704ZM385.274 141H397.754V73.8H385.274V141ZM436.762 141.96C455.194 141.96 463.93 132.744 463.93 121.992C463.93 97.32 424.09 106.632 424.09 92.328C424.09 87.24 428.314 83.208 438.682 83.208C444.538 83.208 451.162 84.936 457.21 88.488L461.146 78.792C455.29 74.952 446.842 72.84 438.778 72.84C420.346 72.84 411.706 82.056 411.706 92.904C411.706 117.864 451.642 108.36 451.642 122.856C451.642 127.848 447.226 131.592 436.762 131.592C428.506 131.592 419.962 128.52 414.586 124.2L410.266 133.896C415.834 138.696 426.298 141.96 436.762 141.96ZM523.153 141H537.745L507.793 103.848L536.017 73.8H522.001L488.785 108.264V73.8H476.305V141H488.785V123.816L499.441 112.872L523.153 141Z" fill="white"/>
</svg>
