<?xml version="1.0" standalone="no"?>
<!DOCTYPE svg PUBLIC "-//W3C//DTD SVG 20010904//EN"
 "http://www.w3.org/TR/2001/REC-SVG-20010904/DTD/svg10.dtd">
<svg version="1.0" xmlns="http://www.w3.org/2000/svg"
 width="270.000000pt" height="270.000000pt" viewBox="0 0 270.000000 270.000000"
 preserveAspectRatio="xMidYMid meet">
<metadata>
Created by potrace 1.11, written by Peter Selinger 2001-2013
</metadata>
<g transform="translate(0.000000,270.000000) scale(0.100000,-0.100000)"
fill="#000000" stroke="none">
<path d="M161 2133 c54 -79 198 -229 340 -353 78 -68 171 -151 179 -160 3 -3
37 -32 75 -65 39 -33 72 -62 75 -65 3 -3 30 -25 60 -50 30 -25 57 -47 60 -50
13 -14 168 -137 290 -229 74 -56 144 -108 155 -116 10 -8 16 -15 12 -15 -4 0
-2 -10 5 -22 7 -13 11 -26 10 -30 -1 -5 3 -8 9 -8 5 0 7 -4 4 -10 -3 -5 -1
-10 4 -10 6 0 11 -7 11 -15 0 -8 13 -29 30 -46 16 -18 27 -36 23 -42 -3 -6 -1
-7 5 -3 6 4 17 -2 24 -14 7 -11 18 -20 25 -20 7 0 13 -5 13 -11 0 -5 -5 -7
-12 -3 -7 4 -8 3 -4 -5 4 -6 12 -9 17 -6 19 12 30 -7 12 -22 -17 -13 -16 -13
5 -3 23 11 42 6 42 -11 0 -6 -5 -7 -12 -3 -7 4 -8 3 -4 -5 6 -9 11 -9 21 -1
10 8 24 6 55 -10 23 -12 54 -23 69 -25 16 -1 26 -8 25 -18 -1 -16 20 -17 33
-2 4 4 2 5 -5 1 -6 -4 -12 -2 -12 3 0 12 27 10 47 -2 6 -4 14 -1 16 5 3 8 6 6
6 -4 1 -10 5 -18 11 -18 5 0 7 6 5 13 -4 9 9 12 49 12 30 -1 52 3 50 7 -3 4 5
8 18 8 13 1 34 7 48 15 28 16 54 20 30 5 -13 -8 -13 -11 -1 -22 8 -7 11 -8 8
-3 -8 15 13 38 60 68 39 25 143 122 143 134 0 3 9 17 19 31 10 15 20 30 21 34
1 4 4 17 7 28 3 11 8 20 12 20 4 0 7 8 7 18 1 9 5 33 9 52 23 103 2 239 -53
342 -57 109 -187 208 -316 241 -97 26 -237 13 -320 -30 -36 -18 -43 -19 -98
-6 -126 29 -356 130 -982 432 -92 44 -171 81 -174 81 -12 0 101 -95 191 -160
26 -19 64 -48 85 -63 112 -86 497 -327 522 -327 5 0 11 -4 15 -9 8 -15 -131
27 -223 66 -152 65 -440 235 -785 465 -48 32 -90 58 -93 58 -3 0 10 -21 27
-47z"/>
<path d="M1877 1924 c-1 -1 -31 -4 -67 -7 -36 -3 -90 -13 -120 -22 -116 -33
-134 -35 -298 -30 -91 3 -177 7 -191 10 -15 2 -55 6 -91 9 l-65 5 40 -14 c22
-7 147 -50 278 -94 224 -76 239 -80 261 -66 45 30 158 56 246 56 160 2 305
-57 415 -168 112 -111 164 -229 171 -384 8 -197 -69 -367 -221 -487 -113 -89
-219 -123 -369 -118 -111 4 -132 7 -191 29 -134 50 -253 158 -321 292 l-39 76
-95 43 c-111 49 -282 155 -387 238 l-74 59 53 -73 c29 -40 144 -165 255 -278
111 -113 215 -224 232 -247 92 -127 219 -214 388 -266 73 -22 97 -25 210 -23
106 3 142 8 208 29 244 80 433 284 490 529 93 400 -158 798 -559 884 -27 6
-156 21 -159 18z"/>
<path d="M2255 861 c-3 -5 -2 -12 3 -15 5 -3 9 1 9 9 0 17 -3 19 -12 6z"/>
<path d="M1507 819 c7 -7 15 -10 18 -7 3 3 -2 9 -12 12 -14 6 -15 5 -6 -5z"/>
<path d="M2220 800 c-9 -6 -10 -10 -3 -10 6 0 15 5 18 10 8 12 4 12 -15 0z"/>
<path d="M2146 762 c-2 -4 4 -8 14 -8 10 0 16 4 14 8 -3 4 -9 8 -14 8 -5 0
-11 -4 -14 -8z"/>
<path d="M2116 742 c-3 -5 1 -9 9 -9 8 0 12 4 9 9 -3 4 -7 8 -9 8 -2 0 -6 -4
-9 -8z"/>
<path d="M1654 729 c1 -7 10 -13 19 -15 9 -1 15 2 11 7 -3 5 -9 7 -14 4 -4 -3
-11 0 -13 5 -3 6 -4 5 -3 -1z"/>
<path d="M2013 685 c0 -8 4 -12 9 -9 5 3 6 10 3 15 -9 13 -12 11 -12 -6z"/>
<path d="M1939 688 c-6 -21 -5 -37 2 -32 5 3 6 10 3 16 -5 8 -1 9 10 5 10 -4
15 -3 11 3 -5 9 -24 14 -26 8z"/>
</g>
</svg>
