<svg version="1" xmlns="http://www.w3.org/2000/svg" width="933.333" height="933.333" viewBox="0 0 700.000000 700.000000"><path d="M665 142.9c-32.6 132.4-34.6 139.8-35.7 136.4-.7-1.9-1-4-.6-4.7.3-.6.2-.8-.2-.3-.5.4-1.4-.5-2.1-2-.8-1.8-1.3-2.2-1.3-1.1-.1.9-.6 2-1.2 2.4-.7.4-.9 0-.5-1.3.6-1.9-.5-3.7-5.1-9-1.3-1.4-2.3-2.9-2.3-3.3 0-1.5-11.3-20.3-13.7-22.8-.7-.7-1.3-2-1.3-2.8 0-.8-.4-1.2-1-.9-.5.3-1 .2-1-.4 0-.5-2.8-5.2-6.2-10.3-23.3-35.3-47.2-59.4-80.3-81.1-30-19.6-62-32-100.2-38.8-14.9-2.7-52.5-3.7-69.5-2-59.5 6.1-115.4 32.7-157.9 75.1-7.4 7.4-16.6 17.3-20.3 22-14.3 18.1-27.5 40.2-36 60-5.5 12.8-5.8 18-1.5 22.7 2.4 2.5 9.9 6.9 9.9 5.7 0-.4.6-.2 1.3.4.7.6 2.2 1.1 3.2 1.1 1.1 0 6.3.2 11.5.5 5.2.2 17.4.7 27 1 9.6.4 21.8.8 27 1.1 30.9 1.6 48.5 1.6 52.2.1 2-.9 8.1-5.7 13.5-10.8 22.1-20.7 42.6-31.1 70.8-36 9.8-1.6 14.6-1.9 26-1.5 7.7.3 14.9.8 16.1 1 32.1 7.5 49.3 16.3 71.3 36.2 4.4 4.1 17.1 19.6 17.1 21.1 0 .4.6 1.5 1.4 2.3 2.4 2.8 9.6 16.7 12.2 23.8 9 24.3 10.8 53.9 4.8 76.9-2 8-10 24.3-16.4 34-6.7 10-24.2 27.6-34 34.1-15.1 10.1-30.7 16.7-48.3 20.4-14.5 3.1-37.1 3.1-51.4 0-25.2-5.3-47-16.8-65.7-34.6-4.4-4.1-8.5-7.5-9.3-7.5-1.7 0-1.7-.4.7-4.2 3.8-6.2 1.4-11.8-5.6-13.2-4.4-1-6 1.1-4.1 5.6 1.3 3.2 1.3 3.6-.7 5.9-3.6 4.2-9.1 4.7-49.6 4.8-53.2.1-69.7.8-73.6 3.2-4 2.4-6.8 8.9-5.8 13.3 1 4.9 8.5 20.1 15.4 31.6 8.3 13.8 15.3 24.4 16.2 24.8.5.2.8.8.8 1.4 0 .6 3 4.9 6.7 9.7 23.9 31 48.2 52.2 80.4 70.3 9.4 5.2 25.3 12.9 32 15.3 35.7 13 61.1 17.6 97.4 17.7 24.6 0 50.5-3.1 67.3-8.1 1.7-.5 3.2-.8 3.2-.6 0 .4 22.4-7.2 32-10.8 3.6-1.4 11.3-4.8 17.2-7.6 6-2.8 11.1-5.1 11.5-5.2.5 0 1.8-1 3.1-2.2 1.3-1.2 2.7-2.1 3-2 .7.2 8.9-4.4 14.1-7.9 1.4-1 3.3-2.1 4.1-2.5.8-.4 2-1.3 2.5-2 .6-.8 1.7-1.5 2.5-1.7 3.7-.7 8.4-3.5 9.7-5.7 1.4-2.4 1.4-2.4.8.5l-.6 2.9 2.6-1.7c1.5-1 4-3.2 5.6-4.9 1.6-1.8 2.7-2.5 2.4-1.7-.6 2.1-30.5 123.8-30.5 124.5 0 .3 38.7.5 86 .5h86V351.5c0-191.7-.1-348.5-.3-348.5-.1 0-15.8 63-34.7 139.9zM403 129c26.4 3.9 47.9 10.6 71.9 22.6 24.9 12.4 44.7 26.9 64.1 47.1 33.7 35 54.4 76.1 63.2 125.2 3.1 17.1 3.3 56.6.5 73.6-8.9 52.9-31.9 97.1-69.6 133.8-75.4 73.2-189.4 87.4-281.1 34.9-32.4-18.5-62.3-47.4-82.4-79.6-3.1-4.9-5.6-9.3-5.6-9.8 0-.4 20.8-.8 46.3-.8h46.2l7.5 6.6c25.6 22.5 56.2 35.3 91.7 38.6 14.3 1.3 31.5.1 46.3-3.1 61.1-13.6 107.7-61 121.2-123.5 3-13.7 3.2-46.5.5-59.6-13.8-65.1-59.7-112.1-123.4-126.2-8.4-1.9-13-2.2-31.8-2.2-19.5-.1-23.2.2-32.3 2.2-30.2 6.8-55.5 20-76.2 39.8l-9.7 9.4h-92.4l3.7-6.8c25.1-45.2 60-78.7 104.9-100.8 22.9-11.2 46.6-18.4 72-21.8 15.9-2.2 48.4-2 64.5.4z"/><path d="M243.3 318.8c-2.7.4-4 3.2-1.5 3.3.9 0 3.6.2 5.9.4 3 .2 4.6-.2 5.7-1.4 1.4-1.6 1.3-1.7-2.6-2-2.3-.1-4.4-.3-4.7-.5-.3-.1-1.6 0-2.8.2zM268.6 324.5c-1.4 2.5-1.6 3.7-.7 5.3 3.1 5.8-.1 14.4-7.1 18.8-4 2.5-6.9 3.1-19.7 3.9-6.8.4-10.9 1.4-6.5 1.6 1 0 3 .2 4.4.4 10.8 1.4 22.2 1.7 24.9.5 3.4-1.4 10.2-9.7 12.6-15.3 3.1-7.4 1.4-14.7-4.1-17.5-1.7-.9-2.3-.6-3.8 2.3zM263 383.2c0 .7.9 2.6 2 4.3 3.9 5.9 1.4 14-5 16-1.8.6-3.5 4.5-2 4.5 6.1 0 13.5-8.9 14-16.7.3-4.7.1-5.3-3.2-7.3-3.8-2.3-5.8-2.5-5.8-.8zM253.8 406.7c.7.3 1.6.2 1.9-.1.4-.3-.2-.6-1.3-.5-1.1 0-1.4.3-.6.6zM167.4 438.9c1.8 1.9 6.6 3.4 6.6 2 0-.4.3-1.4.6-2.3.5-1.3-.2-1.6-4.1-1.6-4.7 0-4.8.1-3.1 1.9z"/></svg>